<svg version="1.2" xmlns="http://www.w3.org/2000/svg" viewBox="0 0 1150 1150" width="1150" height="1150">
	<title>Logo dark big</title>
	<style>
		.s0 { fill: #000000;stroke: #000000 } 
		.s1 { fill: #05090c;stroke: #accac8;stroke-width: 20.5 } 
	</style>
	<g id="_Artboards_">
	</g>
	<g id="Layer 3">
		<path id="&lt;Path&gt;" class="s0" d="m1150 1150h-1150v-1150h1150z"/>
	</g>
	<g id="Layer 2">
		<path id="&lt;Path&gt;" class="s1" d="m745.1 953.3c-2.8 6.9-10.8 10.3-17.7 7.5l-530.7-215.7c-6.9-2.8-10.3-10.8-7.5-17.7l215.7-530.7c2.8-6.9 10.8-10.3 17.7-7.5l530.7 215.7c6.9 2.8 10.3 10.8 7.5 17.7z"/>
		<path id="&lt;Path&gt;" class="s1" d="m962.8 722.2c2.9 6.9-0.4 14.9-7.3 17.8l-527.7 222.8c-6.9 2.9-14.9-0.4-17.8-7.3l-222.8-527.7c-2.9-6.9 0.4-14.9 7.3-17.8l527.7-222.8c6.9-2.9 14.9 0.4 17.8 7.3z"/>
		<path id="&lt;Path&gt;" class="s1" d="m716.7 890.2c-2.3 5.8-8.9 8.6-14.7 6.3l-442.2-179.8c-5.8-2.3-8.6-8.9-6.3-14.7l179.8-442.2c2.3-5.8 8.9-8.6 14.7-6.3l442.2 179.8c5.8 2.3 8.6 8.9 6.3 14.7z"/>
		<path id="&lt;Path&gt;" class="s1" d="m898.1 697.7c2.5 5.7-0.2 12.4-6 14.8l-439.8 185.6c-5.7 2.5-12.4-0.2-14.8-6l-185.6-439.8c-2.5-5.7 0.2-12.4 6-14.8l439.8-185.6c5.7-2.5 12.4 0.2 14.8 6z"/>
		<path id="&lt;Path&gt;" class="s1" d="m688.4 827.2c-1.9 4.6-7.2 6.9-11.8 5l-353.8-143.8c-4.6-1.9-6.9-7.2-5-11.8l143.8-353.8c1.9-4.6 7.2-6.9 11.8-5l353.8 143.8c4.6 1.9 6.9 7.2 5 11.8z"/>
		<path id="&lt;Path&gt;" class="s1" d="m833.5 673.1c2 4.7-0.2 10-4.8 11.9l-351.8 148.5c-4.7 2-10-0.2-11.9-4.8l-148.5-351.8c-2-4.7 0.2-10 4.8-11.9l351.8-148.5c4.7-2 10 0.2 11.9 4.8z"/>
		<path id="&lt;Path&gt;" class="s1" d="m660 764.1c-1.4 3.5-5.3 5.2-8.8 3.8l-265.3-107.9c-3.5-1.4-5.2-5.3-3.8-8.8l107.9-265.3c1.4-3.5 5.3-5.2 8.8-3.8l265.3 107.9c3.5 1.4 5.2 5.3 3.8 8.8z"/>
		<path id="&lt;Path&gt;" class="s1" d="m768.9 648.6c1.4 3.5-0.2 7.4-3.6 8.9l-263.9 111.4c-3.5 1.4-7.4-0.2-8.9-3.6l-111.4-263.9c-1.4-3.5 0.2-7.4 3.6-8.9l263.9-111.4c3.5-1.4 7.4 0.2 8.9 3.6z"/>
	</g>
</svg>